<mxfile host="app.diagrams.net" agent="Mozilla/5.0 (Windows NT 10.0; Win64; x64) AppleWebKit/537.36 (KHTML, like Gecko) Chrome/135.0.0.0 Safari/537.36" version="26.2.14">
  <diagram name="PÃ¡gina-1" id="ZXXmIpvo8f8X8aWkSZkP">
    <mxGraphModel dx="578" dy="301" grid="1" gridSize="10" guides="1" tooltips="1" connect="1" arrows="1" fold="1" page="1" pageScale="1" pageWidth="827" pageHeight="1169" math="0" shadow="0">
      <root>
        <mxCell id="0" />
        <mxCell id="1" parent="0" />
        <mxCell id="T08YNgTe2YQc-LEGNOYy-5" style="rounded=0;orthogonalLoop=1;jettySize=auto;html=1;strokeWidth=2;endArrow=open;endFill=0;endSize=14;fillColor=#a20025;strokeColor=#6F0000;" parent="1" source="T08YNgTe2YQc-LEGNOYy-1" target="T08YNgTe2YQc-LEGNOYy-2" edge="1">
          <mxGeometry relative="1" as="geometry" />
        </mxCell>
        <mxCell id="T08YNgTe2YQc-LEGNOYy-1" value="Usuario" style="shape=umlActor;verticalLabelPosition=bottom;verticalAlign=top;html=1;outlineConnect=0;" parent="1" vertex="1">
          <mxGeometry x="540" y="310" width="30" height="60" as="geometry" />
        </mxCell>
        <mxCell id="T08YNgTe2YQc-LEGNOYy-2" value="Login" style="ellipse;whiteSpace=wrap;html=1;fillColor=#0050ef;fontColor=#ffffff;strokeColor=#001DBC;" parent="1" vertex="1">
          <mxGeometry x="497" y="180" width="120" height="60" as="geometry" />
        </mxCell>
        <mxCell id="T08YNgTe2YQc-LEGNOYy-6" style="rounded=0;orthogonalLoop=1;jettySize=auto;html=1;strokeWidth=2;endArrow=open;endFill=0;endSize=14;fillColor=#a20025;strokeColor=#6F0000;" parent="1" source="T08YNgTe2YQc-LEGNOYy-3" target="T08YNgTe2YQc-LEGNOYy-2" edge="1">
          <mxGeometry relative="1" as="geometry" />
        </mxCell>
        <mxCell id="T08YNgTe2YQc-LEGNOYy-8" value="&amp;lt; e &amp;gt;" style="edgeLabel;html=1;align=center;verticalAlign=middle;resizable=0;points=[];" parent="T08YNgTe2YQc-LEGNOYy-6" vertex="1" connectable="0">
          <mxGeometry x="-0.2472" y="-1" relative="1" as="geometry">
            <mxPoint x="-20" y="-10" as="offset" />
          </mxGeometry>
        </mxCell>
        <mxCell id="T08YNgTe2YQc-LEGNOYy-3" value="Registrar Usuario" style="ellipse;whiteSpace=wrap;html=1;fillColor=#0050ef;fontColor=#ffffff;strokeColor=#001DBC;" parent="1" vertex="1">
          <mxGeometry x="697" y="10" width="120" height="60" as="geometry" />
        </mxCell>
        <mxCell id="T08YNgTe2YQc-LEGNOYy-7" style="rounded=0;orthogonalLoop=1;jettySize=auto;html=1;strokeWidth=2;endArrow=open;endFill=0;endSize=14;fillColor=#a20025;strokeColor=#6F0000;" parent="1" source="T08YNgTe2YQc-LEGNOYy-4" target="T08YNgTe2YQc-LEGNOYy-2" edge="1">
          <mxGeometry relative="1" as="geometry" />
        </mxCell>
        <mxCell id="T08YNgTe2YQc-LEGNOYy-9" value="&amp;lt; e &amp;gt;" style="edgeLabel;html=1;align=center;verticalAlign=middle;resizable=0;points=[];" parent="T08YNgTe2YQc-LEGNOYy-7" vertex="1" connectable="0">
          <mxGeometry x="-0.0122" relative="1" as="geometry">
            <mxPoint x="20" y="-20" as="offset" />
          </mxGeometry>
        </mxCell>
        <mxCell id="T08YNgTe2YQc-LEGNOYy-4" value="Registrar Usuario&lt;div&gt;google&lt;/div&gt;" style="ellipse;whiteSpace=wrap;html=1;fillColor=#0050ef;fontColor=#ffffff;strokeColor=#001DBC;" parent="1" vertex="1">
          <mxGeometry x="707" y="290" width="120" height="60" as="geometry" />
        </mxCell>
        <mxCell id="Qf4e3GnfrzGttYhVKHO3-1" style="rounded=0;orthogonalLoop=1;jettySize=auto;html=1;strokeWidth=2;endArrow=open;endFill=0;endSize=14;fillColor=#a20025;strokeColor=#6F0000;" edge="1" parent="1" source="T08YNgTe2YQc-LEGNOYy-4" target="T08YNgTe2YQc-LEGNOYy-3">
          <mxGeometry relative="1" as="geometry">
            <mxPoint x="736" y="308" as="sourcePoint" />
            <mxPoint x="608" y="242" as="targetPoint" />
          </mxGeometry>
        </mxCell>
        <mxCell id="Qf4e3GnfrzGttYhVKHO3-2" value="&amp;lt; e &amp;gt;" style="edgeLabel;html=1;align=center;verticalAlign=middle;resizable=0;points=[];" vertex="1" connectable="0" parent="Qf4e3GnfrzGttYhVKHO3-1">
          <mxGeometry x="-0.0122" relative="1" as="geometry">
            <mxPoint x="20" y="-20" as="offset" />
          </mxGeometry>
        </mxCell>
        <mxCell id="Qf4e3GnfrzGttYhVKHO3-6" value="Usuario" style="shape=umlActor;verticalLabelPosition=bottom;verticalAlign=top;html=1;outlineConnect=0;" vertex="1" parent="1">
          <mxGeometry x="60" y="170" width="30" height="60" as="geometry" />
        </mxCell>
        <mxCell id="Qf4e3GnfrzGttYhVKHO3-7" value="Cargar ropa" style="ellipse;whiteSpace=wrap;html=1;fillColor=#0050ef;fontColor=#ffffff;strokeColor=#001DBC;" vertex="1" parent="1">
          <mxGeometry x="170" y="190" width="120" height="60" as="geometry" />
        </mxCell>
        <mxCell id="Qf4e3GnfrzGttYhVKHO3-9" value="Listar ropa" style="ellipse;whiteSpace=wrap;html=1;fillColor=#0050ef;fontColor=#ffffff;strokeColor=#001DBC;" vertex="1" parent="1">
          <mxGeometry x="210" y="60" width="120" height="60" as="geometry" />
        </mxCell>
        <mxCell id="Qf4e3GnfrzGttYhVKHO3-10" value="Retirar ropa" style="ellipse;whiteSpace=wrap;html=1;fillColor=#0050ef;fontColor=#ffffff;strokeColor=#001DBC;" vertex="1" parent="1">
          <mxGeometry x="160" y="300" width="120" height="60" as="geometry" />
        </mxCell>
        <mxCell id="Qf4e3GnfrzGttYhVKHO3-8" style="rounded=0;orthogonalLoop=1;jettySize=auto;html=1;strokeWidth=2;endArrow=block;endFill=1;endSize=14;fillColor=#a20025;strokeColor=#6F0000;edgeStyle=orthogonalEdgeStyle;" edge="1" parent="1" source="Qf4e3GnfrzGttYhVKHO3-6" target="Qf4e3GnfrzGttYhVKHO3-7">
          <mxGeometry relative="1" as="geometry">
            <mxPoint x="150" y="200" as="sourcePoint" />
            <mxPoint x="220" y="-190" as="targetPoint" />
            <Array as="points">
              <mxPoint x="110" y="220" />
              <mxPoint x="110" y="220" />
            </Array>
          </mxGeometry>
        </mxCell>
        <mxCell id="Qf4e3GnfrzGttYhVKHO3-13" style="rounded=0;orthogonalLoop=1;jettySize=auto;html=1;strokeWidth=2;endArrow=block;endFill=1;endSize=14;fillColor=#a20025;strokeColor=#6F0000;edgeStyle=orthogonalEdgeStyle;" edge="1" parent="1" source="Qf4e3GnfrzGttYhVKHO3-6" target="Qf4e3GnfrzGttYhVKHO3-10">
          <mxGeometry relative="1" as="geometry">
            <mxPoint x="312" y="225" as="sourcePoint" />
            <mxPoint x="428" y="135" as="targetPoint" />
            <Array as="points">
              <mxPoint x="75" y="340" />
            </Array>
          </mxGeometry>
        </mxCell>
        <mxCell id="Qf4e3GnfrzGttYhVKHO3-14" style="rounded=0;orthogonalLoop=1;jettySize=auto;html=1;strokeWidth=2;endArrow=none;endFill=0;endSize=14;fillColor=#a20025;strokeColor=#6F0000;exitX=1;exitY=0.5;exitDx=0;exitDy=0;entryX=1;entryY=0.5;entryDx=0;entryDy=0;edgeStyle=orthogonalEdgeStyle;curved=1;startArrow=open;startFill=0;startSize=14;" edge="1" parent="1" source="Qf4e3GnfrzGttYhVKHO3-9" target="Qf4e3GnfrzGttYhVKHO3-10">
          <mxGeometry relative="1" as="geometry">
            <mxPoint x="412" y="119.99999999999977" as="sourcePoint" />
            <mxPoint x="412" y="309.9999999999998" as="targetPoint" />
            <Array as="points">
              <mxPoint x="380" y="90" />
              <mxPoint x="380" y="330" />
            </Array>
          </mxGeometry>
        </mxCell>
        <mxCell id="Qf4e3GnfrzGttYhVKHO3-15" value="&amp;lt;E&amp;gt;" style="edgeLabel;html=1;align=center;verticalAlign=middle;resizable=0;points=[];" vertex="1" connectable="0" parent="Qf4e3GnfrzGttYhVKHO3-14">
          <mxGeometry x="0.4377" y="-2" relative="1" as="geometry">
            <mxPoint x="20" y="10" as="offset" />
          </mxGeometry>
        </mxCell>
        <mxCell id="Qf4e3GnfrzGttYhVKHO3-17" style="rounded=0;orthogonalLoop=1;jettySize=auto;html=1;strokeWidth=2;endArrow=open;endFill=0;endSize=14;fillColor=#a20025;strokeColor=#6F0000;" edge="1" parent="1" source="Qf4e3GnfrzGttYhVKHO3-7" target="Qf4e3GnfrzGttYhVKHO3-9">
          <mxGeometry relative="1" as="geometry">
            <mxPoint x="100" y="210" as="sourcePoint" />
            <mxPoint x="220" y="210" as="targetPoint" />
          </mxGeometry>
        </mxCell>
        <mxCell id="Qf4e3GnfrzGttYhVKHO3-18" value="&amp;lt;E&amp;gt;" style="edgeLabel;html=1;align=center;verticalAlign=middle;resizable=0;points=[];" vertex="1" connectable="0" parent="Qf4e3GnfrzGttYhVKHO3-17">
          <mxGeometry x="-0.1051" relative="1" as="geometry">
            <mxPoint x="21" y="12" as="offset" />
          </mxGeometry>
        </mxCell>
        <mxCell id="Qf4e3GnfrzGttYhVKHO3-19" style="rounded=0;orthogonalLoop=1;jettySize=auto;html=1;strokeWidth=2;endArrow=block;endFill=1;endSize=14;fillColor=#a20025;strokeColor=#6F0000;edgeStyle=orthogonalEdgeStyle;" edge="1" parent="1" source="Qf4e3GnfrzGttYhVKHO3-6" target="Qf4e3GnfrzGttYhVKHO3-9">
          <mxGeometry relative="1" as="geometry">
            <mxPoint x="100" y="212" as="sourcePoint" />
            <mxPoint x="221" y="224" as="targetPoint" />
            <Array as="points">
              <mxPoint x="75" y="90" />
            </Array>
          </mxGeometry>
        </mxCell>
        <mxCell id="Qf4e3GnfrzGttYhVKHO3-23" style="rounded=0;orthogonalLoop=1;jettySize=auto;html=1;strokeWidth=2;endArrow=none;endFill=0;endSize=14;fillColor=#a20025;strokeColor=#6F0000;startFill=0;startArrow=open;startSize=14;exitX=0;exitY=1;exitDx=0;exitDy=0;entryX=0;entryY=0;entryDx=0;entryDy=0;" edge="1" parent="1" source="Qf4e3GnfrzGttYhVKHO3-9" target="Qf4e3GnfrzGttYhVKHO3-7">
          <mxGeometry relative="1" as="geometry">
            <mxPoint x="260" y="119.1603989154981" as="sourcePoint" />
            <mxPoint x="260" y="189.9996010845019" as="targetPoint" />
            <Array as="points" />
          </mxGeometry>
        </mxCell>
        <mxCell id="Qf4e3GnfrzGttYhVKHO3-24" value="&amp;lt;I&amp;gt;" style="edgeLabel;html=1;align=center;verticalAlign=middle;resizable=0;points=[];" vertex="1" connectable="0" parent="Qf4e3GnfrzGttYhVKHO3-23">
          <mxGeometry x="0.4377" y="-2" relative="1" as="geometry">
            <mxPoint x="-14" y="-20" as="offset" />
          </mxGeometry>
        </mxCell>
        <mxCell id="Qf4e3GnfrzGttYhVKHO3-25" style="rounded=0;orthogonalLoop=1;jettySize=auto;html=1;strokeWidth=2;endArrow=none;endFill=0;endSize=14;fillColor=#a20025;strokeColor=#6F0000;edgeStyle=orthogonalEdgeStyle;startFill=0;startArrow=open;startSize=14;elbow=vertical;curved=1;entryX=0.5;entryY=0;entryDx=0;entryDy=0;" edge="1" parent="1" source="Qf4e3GnfrzGttYhVKHO3-9" target="Qf4e3GnfrzGttYhVKHO3-10">
          <mxGeometry relative="1" as="geometry">
            <mxPoint x="280" y="130" as="sourcePoint" />
            <mxPoint x="310" y="330" as="targetPoint" />
            <Array as="points">
              <mxPoint x="310" y="290" />
              <mxPoint x="220" y="290" />
            </Array>
          </mxGeometry>
        </mxCell>
        <mxCell id="Qf4e3GnfrzGttYhVKHO3-26" value="&amp;lt;I&amp;gt;" style="edgeLabel;html=1;align=center;verticalAlign=middle;resizable=0;points=[];" vertex="1" connectable="0" parent="Qf4e3GnfrzGttYhVKHO3-25">
          <mxGeometry x="0.4377" y="-2" relative="1" as="geometry">
            <mxPoint x="22" y="-28" as="offset" />
          </mxGeometry>
        </mxCell>
      </root>
    </mxGraphModel>
  </diagram>
</mxfile>
